<svg id="Sarnmar_-_White" data-name="Sarnmar - White" xmlns="http://www.w3.org/2000/svg" width="100" height="28" viewBox="0 0 100 28">
  <path id="Path_7002" data-name="Path 7002" d="M41.6,30.513a2.982,2.982,0,0,0-.574-.037H39.884a2.982,2.982,0,0,0-.574.037c-.115-.334-.229-.7-.421-1.187q-.287-.668-.574-1.447c-.229-.519-.421-1-.65-1.521s-.421-1-.612-1.484c-.459,0-.956-.037-1.415-.037H32.848c-.421,0-.88,0-1.338.037-.459,1.113-.88,2.152-1.262,3.153s-.65,1.818-.841,2.485a5.82,5.82,0,0,0-.8-.037,5.29,5.29,0,0,0-.8.037c1.185-2.485,2.333-4.971,3.48-7.419,1.109-2.448,2.256-4.971,3.4-7.494H35.1q.516,1.224,1.147,2.671l1.262,2.894c.421.965.841,1.966,1.262,2.931s.841,1.855,1.185,2.708c.382.816.727,1.558.994,2.226A12.487,12.487,0,0,0,41.6,30.513Zm-9.713-6.64c.382,0,.765,0,1.185.037.421,0,.8.037,1.185.037h1.224c.421,0,.8,0,1.224-.037l-2.447-5.416Z" transform="translate(-17.169 -9.821)" fill="#fff"/>
  <path id="Path_7003" data-name="Path 7003" d="M176.1,30.513a2.982,2.982,0,0,0-.574-.037h-1.147a2.982,2.982,0,0,0-.574.037c-.115-.334-.229-.7-.421-1.187q-.287-.668-.574-1.447c-.229-.519-.421-1-.65-1.521s-.421-1-.612-1.484c-.459,0-.956-.037-1.415-.037h-2.792c-.421,0-.88,0-1.338.037-.459,1.113-.88,2.152-1.262,3.153s-.65,1.818-.841,2.485a5.821,5.821,0,0,0-.8-.037,5.29,5.29,0,0,0-.8.037c1.185-2.485,2.333-4.971,3.48-7.419,1.109-2.448,2.256-4.971,3.4-7.494h.421q.516,1.224,1.147,2.671l1.262,2.894c.421.965.841,1.966,1.262,2.931s.841,1.855,1.185,2.708c.382.816.727,1.558.994,2.226A12.488,12.488,0,0,0,176.1,30.513Zm-9.713-6.64c.382,0,.765,0,1.185.037.421,0,.8.037,1.185.037h1.224c.421,0,.8,0,1.224-.037l-2.447-5.416Z" transform="translate(-100.237 -9.821)" fill="#fff"/>
  <path id="Path_7004" data-name="Path 7004" d="M1.147,28.51a2.589,2.589,0,0,0,.727.7,3.543,3.543,0,0,0,.994.519,3.46,3.46,0,0,0,1.262.185,2.9,2.9,0,0,0,1.3-.26,2.59,2.59,0,0,0,.994-.668,2.339,2.339,0,0,0,.612-.965,3.129,3.129,0,0,0,.229-1.187,2.212,2.212,0,0,0-.535-1.558,4.328,4.328,0,0,0-1.3-.965,16.614,16.614,0,0,0-1.644-.7A7.479,7.479,0,0,1,2.141,22.8a5.033,5.033,0,0,1-1.3-1.224,3.5,3.5,0,0,1-.459-1.966,3.792,3.792,0,0,1,.344-1.632,3.5,3.5,0,0,1,.956-1.261A4.122,4.122,0,0,1,3.174,15.9a6.564,6.564,0,0,1,1.988-.3A5.61,5.61,0,0,1,7,15.86a4.3,4.3,0,0,1,1.415.742c-.115.26-.229.482-.344.779A8.164,8.164,0,0,0,7.8,18.419H7.533c-.076-.185-.191-.408-.306-.668a3.771,3.771,0,0,0-.5-.668,3.877,3.877,0,0,0-.765-.519,2.4,2.4,0,0,0-1.071-.185,3.706,3.706,0,0,0-1.147.185,2.074,2.074,0,0,0-.841.556,2.217,2.217,0,0,0-.612.816A2.461,2.461,0,0,0,2.1,19.013a2.2,2.2,0,0,0,.535,1.6,4.328,4.328,0,0,0,1.3.965,16.614,16.614,0,0,0,1.644.7,9.461,9.461,0,0,1,1.644.742,4.225,4.225,0,0,1,1.3,1.15,3.111,3.111,0,0,1,.535,1.892,5.005,5.005,0,0,1-.344,1.855,4.275,4.275,0,0,1-1.071,1.521,4.474,4.474,0,0,1-1.683,1,7.015,7.015,0,0,1-2.256.334,6.167,6.167,0,0,1-2.218-.334A5.958,5.958,0,0,1,0,29.623a5.532,5.532,0,0,0,.268-.89c.038-.26.115-.594.153-1H.688A4.143,4.143,0,0,0,1.147,28.51Z" transform="translate(0 -9.821)" fill="#fff"/>
  <path id="Path_7005" data-name="Path 7005" d="M117.421,21.461c1.032,1.892,2.1,3.858,3.25,5.861.153-.26.344-.668.65-1.15.268-.519.612-1.076.956-1.744.382-.668.765-1.373,1.185-2.115s.841-1.521,1.262-2.3.841-1.558,1.3-2.3c.421-.742.8-1.447,1.185-2.115h.268c.153,1.373.306,2.671.459,3.969.153,1.261.268,2.523.421,3.747s.306,2.448.421,3.635c.153,1.187.306,2.374.5,3.561a2.423,2.423,0,0,0-.5-.037h-1.071a2.246,2.246,0,0,0-.5.037c-.153-1.892-.306-3.71-.5-5.49-.153-1.781-.344-3.6-.612-5.416h-.038l-2.983,5.342c-.956,1.781-1.912,3.635-2.792,5.565H120.1c-.88-1.781-1.8-3.6-2.753-5.379s-1.912-3.635-2.906-5.49H114.4c-.115.89-.229,1.855-.344,2.856-.115,1.039-.229,2.04-.344,3.042s-.191,1.929-.268,2.819-.115,1.632-.115,2.189a7.9,7.9,0,0,0-1.53,0c.191-1.15.382-2.374.612-3.635.191-1.261.421-2.56.612-3.858s.382-2.56.535-3.821.306-2.448.421-3.6h.382C115.356,17.6,116.389,19.569,117.421,21.461Z" transform="translate(-69.048 -9.821)" fill="#fff"/>
  <path id="Path_7006" data-name="Path 7006" d="M76.751,25.048c-1.912-1.966-3.824-3.969-5.7-5.9,0,.408-.038.927-.038,1.6s-.038,1.6-.038,2.745V24.6c0,.445,0,.89.038,1.373,0,.482,0,.965.038,1.484,0,.482.038.965.038,1.373s.038.816.038,1.113c0,.334.038.519.038.668a5.025,5.025,0,0,0-.765-.037,5.29,5.29,0,0,0-.8.037,6.1,6.1,0,0,0,.115-.779c.038-.371.076-.853.115-1.373s.076-1.113.115-1.744.076-1.261.076-1.892c.038-.631.038-1.224.038-1.818s.038-1.113.038-1.6V17.889c0-.965-.038-1.706-.038-2.189H70.4q1.319,1.391,2.868,3c1.032,1.076,2.027,2.115,3.021,3.19.994,1.039,1.95,2.04,2.868,2.968s1.683,1.706,2.371,2.374V24.344c0-1.484,0-2.931-.038-4.34S81.416,17.258,81.34,16a3.18,3.18,0,0,0,.765.111A2.643,2.643,0,0,0,82.793,16c-.038.3-.076.779-.115,1.41s-.076,1.3-.115,2-.076,1.41-.115,2.077-.038,1.224-.038,1.632V25.9c0,.519,0,1.039.038,1.6,0,.519,0,1.039.038,1.484v1.892h-.306C80.46,28.944,78.663,27.015,76.751,25.048Z" transform="translate(-42.985 -9.884)" fill="#fff"/>
  <path id="Path_7007" data-name="Path 7007" d="M203.853,21.89c0-.927,0-1.855-.038-2.745s-.077-1.818-.115-2.745c.421.037.841.037,1.262.074s.841.037,1.262.037.841,0,1.262-.037.841-.037,1.262-.037a9.113,9.113,0,0,1,1.759.185,4.2,4.2,0,0,1,1.453.556,2.637,2.637,0,0,1,.994,1.039,3.3,3.3,0,0,1,.344,1.6,3.217,3.217,0,0,1-.459,1.744,4.443,4.443,0,0,1-1.147,1.224,6.434,6.434,0,0,1-2.868,1.076c.191.223.421.519.727.89s.65.816,1.032,1.261.765.927,1.185,1.447.8,1,1.185,1.447.727.89,1.071,1.261.612.668.8.89a3.823,3.823,0,0,0-.65-.037h-1.3a3.823,3.823,0,0,0-.65.037c-.229-.3-.535-.742-.994-1.335s-.956-1.224-1.491-1.929c-.535-.668-1.109-1.373-1.644-2.04-.574-.668-1.071-1.261-1.53-1.706h-.841V25.6c0,.927,0,1.855.038,2.782s.076,1.818.115,2.671a15.468,15.468,0,0,0-2.141,0l.115-2.671c.038-.927.038-1.818.038-2.782V21.89Zm1.836,1.224a3.532,3.532,0,0,0,.688.074c.229,0,.5.037.8.037a6.338,6.338,0,0,0,1.415-.148,3.851,3.851,0,0,0,1.338-.519,3.278,3.278,0,0,0,1.032-1,3.234,3.234,0,0,0,.115-2.968,2.3,2.3,0,0,0-.841-.853,2.894,2.894,0,0,0-1.109-.445,6.01,6.01,0,0,0-1.147-.111,12.292,12.292,0,0,0-1.262.037c-.344.037-.612.037-.841.074-.038.779-.077,1.558-.077,2.337-.038.779-.038,1.521-.038,2.3v1.187Z" transform="translate(-125.805 -10.324)" fill="#fff"/>
  <path id="Path_7008" data-name="Path 7008" d="M165.544,20.565S190.553-3.733,117.4,1.943c0,0,47.494-7.2,54.568,6.269C174.8,13.591,165.544,20.565,165.544,20.565Z" transform="translate(-72.506 -0.022)" fill="#b2a89f"/>
  <g id="Group_15920" data-name="Group 15920" transform="translate(42.905 24.55)">
    <path id="Path_7009" data-name="Path 7009" d="M112.2,66.4h.421v2.931h1.568V69.7h-1.95V66.4Z" transform="translate(-112.2 -66.326)" fill="#fff"/>
    <path id="Path_7010" data-name="Path 7010" d="M119.6,66.4h.421v3.3H119.6Z" transform="translate(-116.77 -66.326)" fill="#fff"/>
    <path id="Path_7011" data-name="Path 7011" d="M122.6,66.4h.459l1.032,2.708h0l1.071-2.708h.421l-1.338,3.3h-.382Z" transform="translate(-118.623 -66.326)" fill="#fff"/>
    <path id="Path_7012" data-name="Path 7012" d="M132.6,66.4h.421v3.3H132.6Z" transform="translate(-124.799 -66.326)" fill="#fff"/>
    <path id="Path_7013" data-name="Path 7013" d="M136.9,66.4h.5l1.95,2.745h0V66.4h.421v3.3h-.5l-1.95-2.745h0V69.7H136.9Z" transform="translate(-127.455 -66.326)" fill="#fff"/>
    <path id="Path_7014" data-name="Path 7014" d="M150.2,69.353a1.722,1.722,0,0,1-.612.223,3.878,3.878,0,0,1-.65.074,2.289,2.289,0,0,1-.727-.111,1.178,1.178,0,0,1-.574-.371,1.466,1.466,0,0,1-.382-.556,2.114,2.114,0,0,1-.153-.7,1.809,1.809,0,0,1,.535-1.261,1.449,1.449,0,0,1,.574-.334,2.289,2.289,0,0,1,.727-.111,2,2,0,0,1,.65.111,2.3,2.3,0,0,1,.574.334l-.306.3a1.7,1.7,0,0,0-.421-.3,1.208,1.208,0,0,0-.5-.111,1.253,1.253,0,0,0-.535.111,1.084,1.084,0,0,0-.421.3,1.4,1.4,0,0,0-.421,1,1.45,1.45,0,0,0,.115.556,1.172,1.172,0,0,0,.306.445,1.378,1.378,0,0,0,.459.3,1.434,1.434,0,0,0,.574.111,1.616,1.616,0,0,0,.421-.037,1.4,1.4,0,0,0,.421-.148v-1h-.765V67.8h1.185v1.558Z" transform="translate(-133.754 -66.2)" fill="#fff"/>
    <path id="Path_7015" data-name="Path 7015" d="M163,66.4h.421v3.3H163Z" transform="translate(-143.574 -66.326)" fill="#fff"/>
    <path id="Path_7016" data-name="Path 7016" d="M167.3,66.4h.5l1.95,2.745h0V66.4h.421v3.3h-.5l-1.95-2.745h0V69.7H167.3Z" transform="translate(-146.23 -66.326)" fill="#fff"/>
    <path id="Path_7017" data-name="Path 7017" d="M182.7,66.4h.421v2.931h1.568V69.7h-1.95V66.4Z" transform="translate(-155.741 -66.326)" fill="#fff"/>
    <path id="Path_7018" data-name="Path 7018" d="M192.5,68.44a2.436,2.436,0,0,1-.076.519.727.727,0,0,1-.229.408,1.491,1.491,0,0,1-.382.3,1.376,1.376,0,0,1-.612.111,1.628,1.628,0,0,1-.612-.111.794.794,0,0,1-.382-.3.877.877,0,0,1-.229-.408,2.129,2.129,0,0,1-.076-.519V66.4h.421v1.966a1.111,1.111,0,0,0,.038.371,1.3,1.3,0,0,0,.153.334.51.51,0,0,0,.268.223.777.777,0,0,0,.421.074,1.412,1.412,0,0,0,.421-.074,1.651,1.651,0,0,0,.268-.223,1.3,1.3,0,0,0,.153-.334,1.226,1.226,0,0,0,.038-.371V66.4h.421Z" transform="translate(-160.188 -66.326)" fill="#fff"/>
    <path id="Path_7019" data-name="Path 7019" d="M200.085,67.958,198.938,66.4h.535l.918,1.3.918-1.3h.5l-1.147,1.558,1.262,1.744h-.535l-.994-1.447L199.4,69.7h-.5Z" transform="translate(-165.746 -66.326)" fill="#fff"/>
    <path id="Path_7020" data-name="Path 7020" d="M211.3,68.44a2.434,2.434,0,0,1-.076.519.727.727,0,0,1-.229.408,1.49,1.49,0,0,1-.382.3,1.377,1.377,0,0,1-.612.111,1.628,1.628,0,0,1-.612-.111.794.794,0,0,1-.382-.3.877.877,0,0,1-.229-.408,2.129,2.129,0,0,1-.076-.519V66.4h.421v1.966a1.111,1.111,0,0,0,.038.371,1.3,1.3,0,0,0,.153.334.51.51,0,0,0,.268.223.777.777,0,0,0,.421.074,1.413,1.413,0,0,0,.421-.074,1.651,1.651,0,0,0,.268-.223,1.3,1.3,0,0,0,.153-.334,1.225,1.225,0,0,0,.038-.371V66.4h.421Z" transform="translate(-171.798 -66.326)" fill="#fff"/>
    <path id="Path_7021" data-name="Path 7021" d="M218.638,66.4h.88a2.246,2.246,0,0,1,.5.037c.153.037.306.074.421.111a1.022,1.022,0,0,1,.306.26.906.906,0,0,1,.115.482.771.771,0,0,1-.229.594,1.051,1.051,0,0,1-.612.3l.956,1.521h-.5l-.918-1.484h-.535V69.7H218.6V66.4Zm.421,1.447h.688a1.145,1.145,0,0,0,.344-.074.621.621,0,0,0,.268-.148.414.414,0,0,0,.115-.3.682.682,0,0,0-.076-.3.38.38,0,0,0-.191-.148.565.565,0,0,0-.268-.074h-.879Z" transform="translate(-177.913 -66.326)" fill="#fff"/>
    <path id="Path_7022" data-name="Path 7022" d="M227.062,68.292,225.8,66.4h.5l.956,1.484.994-1.484h.5l-1.262,1.892V69.7h-.421Z" transform="translate(-182.359 -66.326)" fill="#fff"/>
  </g>
</svg>
